<?xml version="1.0" encoding="UTF-8" standalone="no"?>
<!-- Generator: Adobe Illustrator 21.1.0, SVG Export Plug-In . SVG Version: 6.00 Build 0)  -->

<svg
   version="1.1"
   id="Layer_1"
   x="0px"
   y="0px"
   viewBox="0 0 80.48626 313.04656"
   xml:space="preserve"
   sodipodi:docname="Sword_2rte.svg"
   inkscape:version="1.3.2 (091e20ef0f, 2023-11-25, custom)"
   width="80.486259"
   height="313.04657"
   xmlns:inkscape="http://www.inkscape.org/namespaces/inkscape"
   xmlns:sodipodi="http://sodipodi.sourceforge.net/DTD/sodipodi-0.dtd"
   xmlns="http://www.w3.org/2000/svg"
   xmlns:svg="http://www.w3.org/2000/svg"><defs
   id="defs60020" /><sodipodi:namedview
   id="namedview60018"
   pagecolor="#ffffff"
   bordercolor="#999999"
   borderopacity="1"
   inkscape:showpageshadow="0"
   inkscape:pageopacity="0"
   inkscape:pagecheckerboard="0"
   inkscape:deskcolor="#d1d1d1"
   showgrid="false"
   inkscape:zoom="1.5324057"
   inkscape:cx="17.945639"
   inkscape:cy="156.94277"
   inkscape:window-width="1920"
   inkscape:window-height="1011"
   inkscape:window-x="0"
   inkscape:window-y="0"
   inkscape:window-maximized="1"
   inkscape:current-layer="Layer_1" />
<style
   type="text/css"
   id="style59823">
	.st0{fill:#1150AF;stroke:#003380;stroke-width:3;stroke-linecap:round;stroke-linejoin:round;}
	.st1{fill:#FEE46E;}
	.st2{fill:#FFD42A;}
	.st3{fill:#FFEDA7;}
	.st4{fill:none;stroke:#AC8800;stroke-linecap:round;stroke-linejoin:round;stroke-miterlimit:10;}
	.st5{fill:none;stroke:#FFD42A;stroke-miterlimit:10;}
	.st6{fill:#FEE46E;stroke:#AC8800;stroke-linecap:round;stroke-linejoin:round;stroke-miterlimit:10;}
	.st7{fill:#FFFFFF;}
	.st8{fill:#F0F0EC;}
	.st9{fill:none;stroke:#8E8E8E;stroke-linecap:round;stroke-miterlimit:10;}
</style>



<g
   id="g60015"
   transform="matrix(1.052252,0.81216334,-0.81216334,1.052252,41.219864,-74.241139)">
	<path
   class="st1"
   d="m 178.9,217.9 c 3.1,3.9 2.4,9.5 -1.5,12.6 -3.9,3.1 -9.5,2.4 -12.6,-1.5 -2.3,-2.9 -2.5,-6.9 -0.8,-9.9 -9.6,-4.7 -18.7,-19.4 -21.8,-24.6 l 8.7,-6.8 c 4.2,4.3 16.3,16.6 18.6,27.1 3.3,-0.9 7.1,0.2 9.4,3.1 z"
   id="path59965" />
	<path
   class="st1"
   d="m 169.2,172.4 c 0,0.5 -0.2,1.1 -0.7,1.5 l -17.6,13.8 -8.7,6.8 -17.6,13.8 c -0.8,0.6 -2,0.5 -2.6,-0.3 -0.3,-0.3 -0.4,-0.7 -0.4,-1.1 0,-0.5 0.2,-1.1 0.7,-1.4 l 17.2,-13.4 4.8,-3.8 4.8,-3.8 17.2,-13.4 c 0.8,-0.6 2,-0.5 2.6,0.3 0.2,0.3 0.3,0.6 0.3,1 z"
   id="path59967" />
	<g
   id="g59971">
		<path
   class="st7"
   d="m 149.1,184.4 -9.6,7.5 C 125.1,173.7 33.9,53.1 33.2,51.7 c -0.6,-1.5 -0.1,-5.8 -0.1,-5.8 0,0 4.3,0.5 5.6,1.5 1.2,1 96.2,118.6 110.4,137 z"
   id="path59969" />
	</g>
	<path
   class="st8"
   d="m 144.3,188.2 -4.8,3.8 C 125.1,173.7 33.9,53.1 33.2,51.7 32.6,50.2 33.1,45.9 33.1,45.9 Z"
   id="path59973" />
	<path
   class="st3"
   d="m 122.6,207.8 c 0,-0.5 0.2,-1.1 0.7,-1.4 l 17.2,-13.4 4.8,-3.8 4.8,-3.8 17.2,-13.4 c 0.5,-0.4 1.2,-0.5 1.8,-0.2 -0.1,-0.2 -0.1,-0.3 -0.2,-0.4 -0.6,-0.8 -1.8,-0.9 -2.6,-0.3 l -17.2,13.4 -4.8,3.8 -4.8,3.8 -17.2,13.4 c -0.5,0.4 -0.7,0.9 -0.7,1.4 0,0.4 0.1,0.8 0.4,1.1 0.2,0.3 0.5,0.5 0.8,0.6 -0.2,-0.3 -0.2,-0.5 -0.2,-0.8 z"
   id="path59975" />
	<path
   class="st2"
   d="m 168.8,171.3 c -0.2,-0.3 -0.5,-0.4 -0.8,-0.6 0.1,0.2 0.2,0.5 0.2,0.7 0,0.5 -0.2,1.1 -0.7,1.5 l -17.6,13.8 -8.7,6.8 -17.6,13.8 c -0.5,0.4 -1.2,0.5 -1.8,0.3 0.1,0.1 0.1,0.3 0.2,0.4 0.6,0.8 1.8,0.9 2.6,0.3 l 17.6,-13.8 8.7,-6.8 17.6,-13.8 c 0.5,-0.4 0.7,-0.9 0.7,-1.5 0,-0.4 -0.1,-0.7 -0.4,-1.1 z"
   id="path59977" />
	<g
   id="g59987">
		<path
   class="st3"
   d="m 176.1,228.7 c 2.4,-1.8 2.8,-5.2 0.9,-7.6 -0.3,-0.4 -0.6,-0.7 -1,-0.9 1.8,2.3 1.4,5.7 -1,7.5 -2,1.6 -4.7,1.5 -6.6,0 0,0 0,0 0,0.1 2,2.3 5.4,2.7 7.7,0.9 z"
   id="path59979" />
		<path
   class="st3"
   d="m 170.5,215.8 c 2.8,-0.8 5.9,-0.1 8.2,1.8 -2.1,-2.5 -5.4,-3.6 -8.5,-3 0.1,0.4 0.2,0.8 0.3,1.2 z"
   id="path59981" />
		<path
   class="st3"
   d="m 144.5,194.4 7.4,-5.8 c -0.4,-0.4 -0.7,-0.7 -1,-1 l -8.7,6.8 c 2.3,3.7 10.6,17 18.4,22.1 -7.3,-4.7 -12.7,-18.4 -16.1,-22.1 z"
   id="path59983" />
		<path
   class="st3"
   d="m 165.7,230 c -2.3,-2.9 -2.5,-6.9 -0.8,-9.9 -0.4,-0.2 -0.8,-0.4 -1.2,-0.6 -1.5,3 -1.3,6.7 0.9,9.6 0.4,0.5 0.8,0.9 1.3,1.3 0,-0.2 -0.1,-0.3 -0.2,-0.4 z"
   id="path59985" />
	</g>
	<g
   id="g59997">
		<path
   class="st2"
   d="m 167.1,216.1 c 0.2,-0.1 1.8,-2.4 2,-2.4 -2.9,-10.2 -14.2,-21.8 -18.3,-26 v 0 c 4.9,5 14.2,18.6 16.3,28.4 z"
   id="path59989" />
		<path
   class="st2"
   d="m 166.6,225.8 c 0.3,0.4 0.6,0.7 1,0.9 -1.8,-2.3 -1.4,-5.7 1,-7.5 2,-1.6 4.7,-1.5 6.6,0 0,0 0,0 0,-0.1 -1.8,-2.4 -5.2,-2.8 -7.6,-0.9 -2.5,1.8 -2.9,5.2 -1,7.6 z"
   id="path59991" />
		<path
   class="st2"
   d="m 163,218 c -2.6,-1.3 -5.2,-3.3 -7.6,-5.6 2.3,2.4 4.8,4.5 7.4,6 0.1,-0.1 0.1,-0.2 0.2,-0.4 z"
   id="path59993" />
		<path
   class="st2"
   d="m 178.9,217.9 c -0.4,-0.5 -0.8,-0.9 -1.3,-1.3 0.1,0.1 0.2,0.2 0.3,0.3 3.1,3.9 2.4,9.5 -1.5,12.6 -3.4,2.7 -8.1,2.5 -11.3,-0.2 3.1,3.6 8.5,4.2 12.3,1.2 3.8,-3 4.5,-8.7 1.5,-12.6 z"
   id="path59995" />
	</g>
	<path
   class="st3"
   d="m 169.5,220.2 c 2,-1.6 4.7,-1.5 6.6,0 0,0 0,0 0,-0.1 -1.8,-2.4 -5.2,-2.8 -7.6,-0.9 -2.4,1.8 -2.8,5.2 -0.9,7.6 0.3,0.4 0.6,0.7 1,0.9 -1.9,-2.4 -1.4,-5.7 0.9,-7.5 z"
   id="path59999" />
	<path
   class="st2"
   d="m 176.1,220.1 c -0.3,-0.4 -0.6,-0.7 -1,-0.9 1.8,2.3 1.4,5.7 -1,7.5 -2,1.6 -4.7,1.5 -6.6,0 0,0 0,0 0,0.1 1.8,2.4 5.2,2.8 7.6,0.9 2.4,-1.8 2.8,-5.2 1,-7.6 z"
   id="path60001" />
	<g
   id="g60013">
		<path
   class="st9"
   d="m 149.1,184.4 -9.6,7.5 C 125.1,173.7 33.9,53.1 33.2,51.7 c -0.6,-1.5 -0.1,-5.8 -0.1,-5.8 0,0 4.3,0.5 5.6,1.5 1.2,1 96.2,118.6 110.4,137 z"
   id="path60003" />
		<line
   class="st9"
   x1="33.099998"
   y1="45.900002"
   x2="144.3"
   y2="188.2"
   id="line60005" />
		<path
   class="st4"
   d="m 178.9,217.9 c 3.1,3.9 2.4,9.5 -1.5,12.6 -3.9,3.1 -9.5,2.4 -12.6,-1.5 -2.3,-2.9 -2.5,-6.9 -0.8,-9.9 -9.6,-4.7 -18.7,-19.4 -21.8,-24.6 l 8.7,-6.8 c 4.2,4.3 16.3,16.6 18.6,27.1 3.3,-0.9 7.1,0.2 9.4,3.1 z"
   id="path60007" />
		
			<circle
   transform="matrix(0.788,-0.6157,0.6157,0.788,-101.1379,153.1489)"
   class="st4"
   cx="171.8"
   cy="223.39999"
   id="ellipse60009"
   r="5.4000001" />
		<path
   class="st4"
   d="m 122.3,205.4 44,-34.4 c 0.8,-0.6 1.9,-0.5 2.6,0.3 v 0 c 0.6,0.8 0.5,1.9 -0.3,2.6 l -44,34.4 c -0.8,0.6 -1.9,0.5 -2.6,-0.3 v 0 c -0.7,-0.9 -0.5,-2 0.3,-2.6 z"
   id="path60011" />
	</g>
</g>
</svg>
